<?xml version="1.0" encoding="UTF-8"?><svg id="Capa_4" xmlns="http://www.w3.org/2000/svg" xmlns:xlink="http://www.w3.org/1999/xlink" viewBox="0 0 1024 768"><defs><style>.cls-1,.cls-2,.Estilo_gr_fico_4,.cls-3,.Estilo_gr_fico_5,.cls-4,.cls-5,.Estilo_gr_fico_2{stroke-width:0px;}.cls-1,.cls-3,.Estilo_gr_fico_5{fill:#e9e8e8;}.cls-2{fill:#00635c;}.Estilo_gr_fico_4{fill:#56a39f;}.cls-3{filter:url(#drop-shadow-1-2);}.Estilo_gr_fico_5{filter:url(#drop-shadow-1);}.cls-4{fill:#3e444c;}.cls-5{filter:url(#drop-shadow-2-2);}.cls-5,.Estilo_gr_fico_2{fill:url(#Degradado_sin_nombre_11);}.Estilo_gr_fico_2{filter:url(#drop-shadow-2);}</style><linearGradient id="Degradado_sin_nombre_11" x1="738.8" y1="287.91" x2="774.33" y2="287.91" gradientUnits="userSpaceOnUse"><stop offset="0" stop-color="#56a39f"/><stop offset=".22" stop-color="#489994"/><stop offset=".62" stop-color="#267f79"/><stop offset="1" stop-color="#00635c"/></linearGradient><filter id="drop-shadow-2" filterUnits="userSpaceOnUse"><feOffset dx="2" dy="2"/><feGaussianBlur result="blur" stdDeviation="2"/><feFlood flood-color="#000" flood-opacity=".25"/><feComposite in2="blur" operator="in"/><feComposite in="SourceGraphic"/></filter><filter id="drop-shadow-1" filterUnits="userSpaceOnUse"><feOffset dx="7" dy="7"/><feGaussianBlur result="blur-2" stdDeviation="5"/><feFlood flood-color="#000" flood-opacity=".15"/><feComposite in2="blur-2" operator="in"/><feComposite in="SourceGraphic"/></filter><filter id="drop-shadow-1-2" filterUnits="userSpaceOnUse"><feOffset dx="7" dy="7"/><feGaussianBlur result="blur-3" stdDeviation="5"/><feFlood flood-color="#000" flood-opacity=".15"/><feComposite in2="blur-3" operator="in"/><feComposite in="SourceGraphic"/></filter><filter id="drop-shadow-2-2" filterUnits="userSpaceOnUse"><feOffset dx="2" dy="2"/><feGaussianBlur result="blur-4" stdDeviation="2"/><feFlood flood-color="#000" flood-opacity=".25"/><feComposite in2="blur-4" operator="in"/><feComposite in="SourceGraphic"/></filter></defs><rect class="cls-4" x="-1.09" y="1.33" width="1026.17" height="768.19"/><rect class="cls-3" x="261.23" y="283.19" width="501.54" height="145.09" rx="12" ry="12"/><path class="cls-5" d="M774.33,287.91c0,9.81-7.95,17.77-17.77,17.77s-17.77-7.95-17.77-17.77,7.95-17.77,17.77-17.77,17.77,7.95,17.77,17.77Z"/><path class="cls-1" d="M759.72,287.81l4.3-4.3c.79-.79.79-2.07,0-2.86-.79-.79-2.07-.79-2.86,0l-4.3,4.3-4.29-4.3c-.79-.79-2.07-.79-2.86,0-.79.79-.79,2.07,0,2.86l4.29,4.3-4.29,4.29c-.79.79-.79,2.07,0,2.86.4.4.91.59,1.43.59s1.04-.2,1.43-.59l4.29-4.3,4.3,4.3c.4.4.91.59,1.43.59s1.04-.2,1.43-.59c.79-.79.79-2.07,0-2.86l-4.3-4.29Z"/><path class="cls-2" d="M380.01,338.77h5.33l12.31,16.18v-16.18h5.71v26.28h-4.92l-12.72-16.7v16.7h-5.71v-26.28Z"/><path class="cls-2" d="M408.5,351.98v-.08c0-7.47,5.89-13.59,14-13.59s13.93,6.04,13.93,13.51v.08c0,7.47-5.89,13.59-14,13.59s-13.93-6.04-13.93-13.51ZM430.38,351.98v-.08c0-4.5-3.3-8.26-7.96-8.26s-7.88,3.68-7.88,8.18v.08c0,4.5,3.3,8.26,7.96,8.26s7.88-3.68,7.88-8.18Z"/><path class="cls-2" d="M461.83,338.58h5.33l11.26,26.46h-6.04l-2.4-5.89h-11.11l-2.4,5.89h-5.89l11.26-26.46ZM467.92,354.04l-3.49-8.52-3.49,8.52h6.98Z"/><path class="cls-2" d="M481.13,353.78v-15.01h5.78v14.86c0,4.28,2.14,6.49,5.67,6.49s5.67-2.14,5.67-6.31v-15.05h5.78v14.83c0,7.96-4.47,11.86-11.52,11.86s-11.37-3.94-11.37-11.67Z"/><path class="cls-2" d="M516.04,344.1h-8v-5.33h21.77v5.33h-8v20.95h-5.78v-20.95Z"/><path class="cls-2" d="M531.95,351.98v-.08c0-7.47,5.89-13.59,14-13.59s13.93,6.04,13.93,13.51v.08c0,7.47-5.89,13.59-14,13.59s-13.93-6.04-13.93-13.51ZM553.84,351.98v-.08c0-4.5-3.3-8.26-7.96-8.26s-7.88,3.68-7.88,8.18v.08c0,4.5,3.3,8.26,7.96,8.26s7.88-3.68,7.88-8.18Z"/><path class="cls-2" d="M565.02,338.77h12.01c3.34,0,5.93.94,7.66,2.67,1.46,1.46,2.25,3.53,2.25,6.01v.08c0,4.24-2.29,6.91-5.63,8.15l6.42,9.38h-6.76l-5.63-8.41h-4.54v8.41h-5.78v-26.28ZM576.66,351.53c2.81,0,4.43-1.5,4.43-3.72v-.08c0-2.48-1.73-3.75-4.54-3.75h-5.74v7.54h5.86Z"/><path class="cls-2" d="M592.43,338.77h5.78v26.28h-5.78v-26.28Z"/><path class="cls-2" d="M603.99,360.65l14.45-16.82h-14v-5.07h21.43v4.39l-14.45,16.82h14.45v5.07h-21.88v-4.39Z"/><path class="cls-2" d="M640.36,338.58h5.33l11.26,26.46h-6.04l-2.4-5.89h-11.11l-2.4,5.89h-5.89l11.26-26.46ZM646.44,354.04l-3.49-8.52-3.49,8.52h6.98Z"/><path class="cls-2" d="M661,338.77h10.25c8.26,0,13.96,5.67,13.96,13.06v.08c0,7.39-5.71,13.14-13.96,13.14h-10.25v-26.28ZM671.25,359.83c4.73,0,7.92-3.19,7.92-7.85v-.08c0-4.65-3.19-7.92-7.92-7.92h-4.47v15.84h4.47Z"/><path class="cls-2" d="M689.19,351.98v-.08c0-7.47,5.89-13.59,14-13.59s13.93,6.04,13.93,13.51v.08c0,7.47-5.89,13.59-14,13.59s-13.93-6.04-13.93-13.51ZM711.08,351.98v-.08c0-4.5-3.3-8.26-7.96-8.26s-7.88,3.68-7.88,8.18v.08c0,4.5,3.3,8.26,7.96,8.26s7.88-3.68,7.88-8.18Z"/><path class="Estilo_gr_fico_4" d="M353.46,365.63l-20.33-35.21c-1.4-2.43-3.92-3.88-6.73-3.88s-5.32,1.45-6.73,3.88l-20.33,35.21c-1.4,2.43-1.4,5.33,0,7.77,1.4,2.43,3.92,3.88,6.73,3.88h40.66c2.81,0,5.32-1.45,6.73-3.88,1.4-2.43,1.4-5.34,0-7.77ZM350.86,371.89c-.86,1.49-2.4,2.38-4.12,2.38h-40.66c-1.72,0-3.26-.89-4.12-2.38-.86-1.49-.86-3.27,0-4.76l20.33-35.21c.86-1.49,2.4-2.38,4.12-2.38s3.26.89,4.12,2.38l20.33,35.21c.86,1.49.86,3.27,0,4.76Z"/><path class="Estilo_gr_fico_4" d="M326.41,360.1h0c1.25,0,2.28-1.01,2.29-2.26l.18-14.38c.02-1.38-1.09-2.5-2.47-2.5h0c-1.38,0-2.49,1.12-2.47,2.5l.18,14.38c.02,1.25,1.04,2.26,2.29,2.26Z"/><path class="Estilo_gr_fico_4" d="M326.41,362.35c-1.7,0-3.08,1.38-3.08,3.08s1.38,3.08,3.08,3.08,3.08-1.38,3.08-3.08-1.38-3.08-3.08-3.08Z"/></svg>