<?xml version="1.0" encoding="UTF-8"?><svg id="Capa_4" xmlns="http://www.w3.org/2000/svg" xmlns:xlink="http://www.w3.org/1999/xlink" viewBox="0 0 1024 768"><defs><style>.cls-1,.cls-2,.Estilo_gr_fico_6,.cls-3,.Estilo_gr_fico_5,.cls-4,.cls-5,.Estilo_gr_fico_2{stroke-width:0px;}.cls-1,.cls-3,.Estilo_gr_fico_5{fill:#e9e8e8;}.cls-2{fill:#00635c;}.Estilo_gr_fico_6{fill:#56a39f;}.cls-3{filter:url(#drop-shadow-3-2);}.Estilo_gr_fico_5{filter:url(#drop-shadow-3);}.cls-4{fill:#3e444c;}.cls-5{filter:url(#drop-shadow-4-2);}.cls-5,.Estilo_gr_fico_2{fill:url(#Degradado_sin_nombre_11);}.Estilo_gr_fico_2{filter:url(#drop-shadow-4);}</style><linearGradient id="Degradado_sin_nombre_11" x1="738.8" y1="287.91" x2="774.33" y2="287.91" gradientUnits="userSpaceOnUse"><stop offset="0" stop-color="#56a39f"/><stop offset=".22" stop-color="#489994"/><stop offset=".62" stop-color="#267f79"/><stop offset="1" stop-color="#00635c"/></linearGradient><filter id="drop-shadow-4" filterUnits="userSpaceOnUse"><feOffset dx="2" dy="2"/><feGaussianBlur result="blur" stdDeviation="2"/><feFlood flood-color="#000" flood-opacity=".25"/><feComposite in2="blur" operator="in"/><feComposite in="SourceGraphic"/></filter><filter id="drop-shadow-3" filterUnits="userSpaceOnUse"><feOffset dx="7" dy="7"/><feGaussianBlur result="blur-2" stdDeviation="5"/><feFlood flood-color="#000" flood-opacity=".15"/><feComposite in2="blur-2" operator="in"/><feComposite in="SourceGraphic"/></filter><filter id="drop-shadow-3-2" filterUnits="userSpaceOnUse"><feOffset dx="7" dy="7"/><feGaussianBlur result="blur-3" stdDeviation="5"/><feFlood flood-color="#000" flood-opacity=".15"/><feComposite in2="blur-3" operator="in"/><feComposite in="SourceGraphic"/></filter><filter id="drop-shadow-4-2" filterUnits="userSpaceOnUse"><feOffset dx="2" dy="2"/><feGaussianBlur result="blur-4" stdDeviation="2"/><feFlood flood-color="#000" flood-opacity=".25"/><feComposite in2="blur-4" operator="in"/><feComposite in="SourceGraphic"/></filter></defs><rect class="cls-4" x="-1.09" y="1.33" width="1026.17" height="768.19"/><rect class="cls-3" x="261.23" y="283.19" width="501.54" height="145.09" rx="12" ry="12"/><path class="cls-5" d="M774.33,287.91c0,9.81-7.95,17.77-17.77,17.77s-17.77-7.95-17.77-17.77,7.95-17.77,17.77-17.77,17.77,7.95,17.77,17.77Z"/><path class="cls-1" d="M759.72,287.81l4.3-4.3c.79-.79.79-2.07,0-2.86-.79-.79-2.07-.79-2.86,0l-4.3,4.3-4.29-4.3c-.79-.79-2.07-.79-2.86,0-.79.79-.79,2.07,0,2.86l4.29,4.3-4.29,4.29c-.79.79-.79,2.07,0,2.86.4.4.91.59,1.43.59s1.04-.2,1.43-.59l4.29-4.3,4.3,4.3c.39.4.91.59,1.43.59s1.04-.2,1.43-.59c.79-.79.79-2.07,0-2.86l-4.3-4.29Z"/><path class="cls-2" d="M369.52,338.77h12.01c3.34,0,5.93.94,7.66,2.67,1.46,1.46,2.25,3.53,2.25,6.01v.08c0,4.24-2.29,6.91-5.63,8.15l6.42,9.38h-6.76l-5.63-8.41h-4.54v8.41h-5.78v-26.28ZM381.16,351.53c2.81,0,4.43-1.5,4.43-3.72v-.08c0-2.48-1.73-3.75-4.54-3.75h-5.74v7.54h5.86Z"/><path class="cls-2" d="M396.66,338.77h19.82v5.14h-14.08v5.33h12.39v5.14h-12.39v5.52h14.26v5.14h-20.01v-26.28Z"/><path class="cls-2" d="M419.56,338.77h6.38l6.87,18.51,6.87-18.51h6.23l-10.62,26.46h-5.1l-10.62-26.46Z"/><path class="cls-2" d="M450.23,338.77h5.78v26.28h-5.78v-26.28Z"/><path class="cls-2" d="M460.77,361.21l3.42-4.09c2.36,1.95,4.84,3.19,7.85,3.19,2.36,0,3.79-.94,3.79-2.48v-.08c0-1.46-.9-2.21-5.29-3.34-5.29-1.35-8.71-2.82-8.71-8.03v-.07c0-4.77,3.83-7.92,9.2-7.92,3.83,0,7.09,1.2,9.76,3.34l-3,4.35c-2.33-1.61-4.62-2.59-6.83-2.59s-3.38,1.01-3.38,2.29v.08c0,1.73,1.13,2.29,5.67,3.45,5.33,1.39,8.33,3.3,8.33,7.88v.08c0,5.22-3.98,8.15-9.65,8.15-3.98,0-8-1.39-11.15-4.2Z"/><path class="cls-2" d="M495.04,338.58h5.33l11.26,26.46h-6.04l-2.4-5.89h-11.11l-2.4,5.89h-5.89l11.26-26.46ZM501.13,354.04l-3.49-8.52-3.49,8.52h6.98Z"/><path class="cls-2" d="M515.69,338.77h12.01c3.34,0,5.93.94,7.66,2.67,1.46,1.46,2.25,3.53,2.25,6.01v.08c0,4.24-2.29,6.91-5.63,8.15l6.42,9.38h-6.76l-5.63-8.41h-4.54v8.41h-5.78v-26.28ZM527.33,351.53c2.81,0,4.43-1.5,4.43-3.72v-.08c0-2.48-1.73-3.75-4.54-3.75h-5.74v7.54h5.86Z"/><path class="cls-2" d="M552.92,351.98v-.08c0-7.47,5.63-13.59,13.7-13.59,4.95,0,7.92,1.65,10.36,4.05l-3.68,4.24c-2.03-1.84-4.09-2.97-6.72-2.97-4.43,0-7.62,3.68-7.62,8.18v.08c0,4.5,3.12,8.26,7.62,8.26,3,0,4.84-1.2,6.91-3.08l3.68,3.72c-2.7,2.89-5.71,4.69-10.77,4.69-7.73,0-13.48-5.97-13.48-13.51Z"/><path class="cls-2" d="M579.88,351.98v-.08c0-7.47,5.89-13.59,14-13.59s13.93,6.04,13.93,13.51v.08c0,7.47-5.89,13.59-14,13.59s-13.93-6.04-13.93-13.51ZM601.76,351.98v-.08c0-4.5-3.3-8.26-7.96-8.26s-7.88,3.68-7.88,8.18v.08c0,4.5,3.3,8.26,7.96,8.26s7.88-3.68,7.88-8.18Z"/><path class="cls-2" d="M612.95,338.77h5.33l12.31,16.18v-16.18h5.71v26.28h-4.92l-12.72-16.7v16.7h-5.71v-26.28Z"/><path class="cls-2" d="M653.86,338.77h5.78v11.49l10.66-11.49h6.98l-10.7,11.15,11.19,15.13h-6.94l-8.15-11.19-3.04,3.15v8.03h-5.78v-26.28Z"/><path class="cls-2" d="M689.52,338.58h5.33l11.26,26.46h-6.04l-2.4-5.89h-11.11l-2.4,5.89h-5.89l11.26-26.46ZM695.6,354.04l-3.49-8.52-3.49,8.52h6.98Z"/><path class="cls-2" d="M710.17,338.77h6.23l6.91,11.11,6.91-11.11h6.23v26.28h-5.74v-17.15l-7.39,11.22h-.15l-7.32-11.11v17.04h-5.67v-26.28Z"/><path class="Estilo_gr_fico_6" d="M342.38,365.63l-20.33-35.21c-1.4-2.43-3.92-3.88-6.73-3.88s-5.32,1.45-6.73,3.88l-20.33,35.21c-1.4,2.43-1.4,5.33,0,7.77,1.4,2.43,3.92,3.88,6.73,3.88h40.66c2.81,0,5.32-1.45,6.73-3.88,1.4-2.43,1.4-5.34,0-7.77ZM339.78,371.89c-.86,1.49-2.4,2.38-4.12,2.38h-40.66c-1.72,0-3.26-.89-4.12-2.38-.86-1.49-.86-3.27,0-4.76l20.33-35.21c.86-1.49,2.4-2.38,4.12-2.38s3.26.89,4.12,2.38l20.33,35.21c.86,1.49.86,3.27,0,4.76Z"/><path class="Estilo_gr_fico_6" d="M315.33,360.1h0c1.26,0,2.28-1.01,2.29-2.26l.18-14.38c.02-1.38-1.09-2.5-2.47-2.5h0c-1.38,0-2.49,1.12-2.47,2.5l.18,14.38c.02,1.25,1.04,2.26,2.29,2.26Z"/><path class="Estilo_gr_fico_6" d="M315.33,362.35c-1.7,0-3.08,1.38-3.08,3.08s1.38,3.08,3.08,3.08,3.08-1.38,3.08-3.08-1.38-3.08-3.08-3.08Z"/></svg>