<svg width="451" height="67" viewBox="0 0 451 67" fill="none" xmlns="http://www.w3.org/2000/svg">
<path d="M210.38 42.67V24.63H217.75C219.88 24.63 221.56 25.2 222.8 26.34C224.04 27.48 224.66 28.99 224.66 30.86V30.91C224.66 32.92 223.97 34.48 222.6 35.59C221.23 36.7 219.48 37.25 217.37 37.25H214.36V42.66H210.39L210.38 42.67ZM214.35 33.73H217.49C218.45 33.73 219.22 33.47 219.78 32.96C220.35 32.44 220.63 31.79 220.63 31V30.95C220.63 30.07 220.35 29.4 219.78 28.93C219.21 28.46 218.42 28.22 217.41 28.22H214.34V33.73H214.35Z" fill="#00807A"/>
<path d="M227.59 42.67V24.63H231.56V39.06H240.55V42.67H227.59Z" fill="#00807A"/>
<path d="M241.99 42.67L249.72 24.5H253.38L261.11 42.67H256.96L255.31 38.63H247.68L246.03 42.67H241.99ZM249.11 35.12H253.9L251.5 29.27L249.1 35.12H249.11Z" fill="#00807A"/>
<path d="M263.9 42.67V24.63H267.56L276.01 35.74V24.63H279.93V42.67H276.55L267.81 31.2V42.67H263.89H263.9Z" fill="#00807A"/>
<path d="M291.98 42.67V24.63H295.95V32.51L303.27 24.63H308.06L300.72 32.28L308.4 42.66H303.63L298.04 34.98L295.95 37.14V42.65H291.98V42.67Z" fill="#00807A"/>
<path d="M310.79 42.67V24.63H324.39V28.16H314.73V31.82H323.23V35.35H314.73V39.14H324.52V42.67H310.79Z" fill="#00807A"/>
<path d="M333.13 42.67V35.56L326.2 24.63H330.84L335.14 31.87L339.52 24.63H344.03L337.1 35.48V42.67H333.13Z" fill="#00807A"/>
<path d="M350.7 42.67V28.29H345.21V24.63H360.16V28.29H354.67V42.67H350.7Z" fill="#00807A"/>
<path d="M363.2 42.67V24.63H371.45C373.74 24.63 375.49 25.24 376.71 26.46C377.74 27.49 378.26 28.87 378.26 30.58V30.63C378.26 33.4 376.97 35.26 374.39 36.22L378.8 42.66H374.16L370.29 36.89H367.17V42.66H363.2V42.67ZM367.17 33.4H371.19C372.14 33.4 372.88 33.17 373.42 32.7C373.96 32.24 374.23 31.62 374.23 30.85V30.8C374.23 29.96 373.95 29.32 373.41 28.88C372.86 28.44 372.1 28.22 371.12 28.22H367.18V33.4H367.17Z" fill="#00807A"/>
<path d="M389.35 42.95C386.89 42.95 384.98 42.27 383.6 40.9C382.22 39.53 381.54 37.55 381.54 34.93V24.62H385.51V34.82C385.51 36.26 385.85 37.37 386.53 38.13C387.21 38.89 388.17 39.28 389.4 39.28C390.63 39.28 391.59 38.91 392.27 38.17C392.95 37.43 393.29 36.36 393.29 34.95V24.62H397.26V34.8C397.26 37.48 396.56 39.51 395.16 40.88C393.76 42.25 391.82 42.94 389.35 42.94V42.95Z" fill="#00807A"/>
<path d="M401.31 42.67V24.63H408.34C411.14 24.63 413.44 25.48 415.23 27.19C417.02 28.9 417.92 31.03 417.92 33.59V33.64C417.92 36.22 417.02 38.36 415.23 40.08C413.44 41.8 411.14 42.66 408.34 42.66H401.31V42.67ZM408.34 28.22H405.27V39.09H408.34C409.95 39.09 411.26 38.59 412.27 37.6C413.27 36.6 413.78 35.31 413.78 33.71V33.66C413.78 32.06 413.28 30.76 412.27 29.74C411.26 28.72 409.95 28.22 408.34 28.22Z" fill="#00807A"/>
<path d="M418.62 42.67L426.35 24.5H430.01L437.74 42.67H433.59L431.94 38.63H424.31L422.66 42.67H418.61H418.62ZM425.73 35.12H430.52L428.12 29.27L425.72 35.12H425.73Z" fill="#00807A"/>
<path d="M448.44 32.67C447.38 33.74 446.09 34.27 444.58 34.27C443.07 34.27 441.79 33.74 440.73 32.69C439.68 31.63 439.15 30.36 439.15 28.87V28.84C439.15 27.35 439.68 26.07 440.74 25C441.8 23.93 443.09 23.4 444.6 23.4C446.11 23.4 447.39 23.93 448.45 24.98C449.5 26.04 450.03 27.31 450.03 28.8V28.83C450.03 30.32 449.5 31.6 448.44 32.67ZM441.16 32.27C442.08 33.2 443.22 33.67 444.58 33.67C445.94 33.67 447.09 33.2 448.01 32.26C448.94 31.32 449.4 30.18 449.4 28.83V28.8C449.4 27.46 448.94 26.32 448.02 25.39C447.1 24.46 445.96 23.99 444.6 23.99C443.24 23.99 442.09 24.46 441.17 25.4C440.24 26.34 439.78 27.48 439.78 28.82V28.85C439.78 30.19 440.24 31.33 441.15 32.26L441.16 32.27ZM442.36 31.57V25.79H444.93C445.7 25.79 446.3 26 446.72 26.42C447.04 26.74 447.2 27.16 447.2 27.68V27.71C447.2 28.6 446.78 29.2 445.95 29.5L447.36 31.57H445.87L444.64 29.71H443.63V31.57H442.35H442.36ZM443.63 28.61H444.91C445.22 28.61 445.46 28.53 445.64 28.38C445.82 28.23 445.9 28.03 445.9 27.78V27.75C445.9 27.19 445.56 26.91 444.88 26.91H443.63V28.61Z" fill="#00807A"/>
<path d="M193.87 16.1801V50.4801" stroke="#00807A" stroke-miterlimit="10"/>
<path d="M34.15 33.33C43.36 33.33 50.82 40.79 50.82 50C60.02 50 67.49 42.54 67.49 33.33C67.49 24.12 60.03 16.66 50.82 16.66C50.82 25.87 43.36 33.33 34.15 33.33ZM17.48 50C17.48 59.21 24.94 66.67 34.15 66.67C43.36 66.67 50.82 59.21 50.82 50H17.49H17.48ZM17.48 50C17.48 40.8 24.94 33.33 34.15 33.33C24.95 33.33 17.48 25.87 17.48 16.66C8.28 16.66 0.809998 24.12 0.809998 33.33C0.809998 42.54 8.27 50 17.48 50ZM17.48 16.67C17.48 7.46 24.94 0 34.15 0C43.36 0 50.82 7.46 50.82 16.67H17.49H17.48Z" fill="#4B837B"/>
<path d="M160.97 43.87H158.03V22.75H160.97C169.07 22.75 171.98 28.03 171.98 33.31C171.98 38.59 169.06 43.87 160.97 43.87ZM161.45 16.63H150.83V49.93H161.45C170.28 49.93 179.24 44.83 179.24 33.31C179.24 21.79 170.28 16.63 161.45 16.63ZM147.05 26.51C147.05 19.93 141.99 16.1 135.94 16.1C129.89 16.1 123.4 19.61 123.4 26.44C123.4 32.36 129.91 35.4 133.63 36.36C135.67 36.9 140.82 37.48 140.82 41.16C140.82 44.84 137.22 45.61 134.52 45.61C131.05 45.61 129.01 43.18 129.31 39.5H122.48C122.24 47.79 127.88 50.88 134.46 51.03C142.07 51.2 147.88 47.95 147.88 40.63C147.88 33.31 141.29 32.1 136.14 30.43C134.14 29.78 130.45 29.21 130.45 25.81C130.45 22.96 132.91 21.6 135.42 21.6C138.65 21.6 140.33 23.2 140.57 26.52H147.04L147.05 26.51ZM109.49 16.67H119.82V50H112.17V27.58L102.38 50L92.08 27.56V50H84.94V16.67H95.15L102.51 33.92L109.51 16.67H109.49Z" fill="#3E444C"/>
</svg>
